<svg width="147" height="57" viewBox="0 0 147 57" fill="none" xmlns="http://www.w3.org/2000/svg">
<path fill-rule="evenodd" clip-rule="evenodd" d="M124.682 27.4543V35.8181L124.772 36.0907H120.11V28.1812C120.11 25.909 118.857 24.9079 117.332 24.9079C115.718 24.9079 114.463 25.9082 114.463 28.1812V36.0907H109.892V28.1812C109.882 24.0234 113.198 20.6453 117.296 20.6352C117.309 20.6352 117.32 20.6352 117.332 20.6352C119.035 20.6352 120.649 21.272 121.904 22.2722L121.994 22.5448L122.083 22.2722C122.264 22.1814 122.352 21.9997 122.531 21.9088L122.8 21.8179L122.531 21.7263C121.457 20.4535 120.739 18.8172 120.739 16.9993V0H125.4L125.31 0.272579V16.9993C125.31 18.8172 126.384 19.7266 127.64 19.7266C128.896 19.7266 129.972 18.8172 129.972 16.9993V0.272579L129.882 0H134.543V16.9993C134.543 18.8172 133.914 20.4543 132.748 21.7263L132.57 21.8179L132.838 21.9088L133.197 22.2722L133.286 22.5448L133.376 22.2722C134.704 21.2114 136.346 20.6344 138.037 20.6352C142.07 20.6352 145.386 23.9993 145.386 28.1812V35.8181L145.477 36.0907H140.815V28.1812C140.815 25.909 139.56 24.9079 138.037 24.9079C136.423 24.9079 135.168 25.9082 135.168 28.1812V36.0907H130.507L130.596 35.8181V27.4543C130.596 25.0904 129.252 23.9993 127.638 23.9993C126.024 23.9993 124.682 25.0904 124.682 27.4543ZM34.4204 54.7277C33.7925 55.182 33.0758 55.6363 32 55.6363C30.5658 55.6363 29.3109 54.5445 29.3109 51.637C29.3109 48.7295 30.2971 47.2718 32 47.2718C33.0758 47.2718 33.8828 47.6353 34.4204 48.2728V54.7277ZM34.4204 56.7259H38.6332V56.2716L37.1095 55.9081V41.2712H32.7167V41.7255L34.4196 42.2722V47.1802C33.7029 46.5449 32.5375 45.9975 31.1034 45.9975C28.4142 45.9975 26.4426 48.3621 26.4426 51.6354C26.4426 54.9087 28.2351 56.9977 31.1034 56.9977C32.3247 56.9961 33.5038 56.5442 34.4196 55.7249V56.7251L34.4204 56.7259ZM74.3078 41.2712V41.7255L72.693 42.1806V55.8173L74.3078 56.2716V56.7259H67.6738V56.2716L69.8247 55.8173V44.9095L64.8055 56.7259H63.7297L58.8002 44.9095V55.8173L60.8622 56.1807V56.7259H56.1126V56.2716L57.4564 55.8173V42.1806L56.1126 41.7255V41.2712H60.3239L65.075 53.0907L69.915 41.2712H74.3078ZM80.9395 46.8167C82.732 46.8167 83.719 48.9081 83.719 51.4537C83.719 53.9993 82.732 56.1807 80.9395 56.1807C79.147 56.1807 78.1616 54.0894 78.1616 51.4537C78.1616 48.818 79.147 46.8167 80.9395 46.8167ZM80.9395 45.999C77.9809 45.999 75.2044 48.1827 75.2044 51.5469C75.2044 54.7277 77.9824 57 80.9395 57C83.8966 57 86.6769 54.7277 86.6769 51.5469C86.6769 48.1827 83.8982 45.999 80.9395 45.999ZM136.064 54.998C135.526 55.3614 135.078 55.7264 134.271 55.7264C132.838 55.7264 132.479 54.9087 132.479 53.9084C132.479 52.8166 133.197 52.1813 134.449 51.908L136.063 51.727V54.9988L136.064 54.998ZM136.064 49.2723V51.0903L133.734 51.1827C131.402 51.2735 129.969 52.4555 129.969 54.2727C129.969 56.0899 131.313 56.9992 133.015 56.9992C134.36 56.9992 135.436 56.2708 136.062 55.8165V56.7251H140.008V56.2708L138.753 55.9074V48.818C138.753 47.2718 137.676 45.999 135.436 45.999C133.195 45.999 131.671 46.7274 130.864 47.0909V49.5464H132.03L132.388 47.4551C132.656 47.3627 133.374 47.0917 134.539 47.1825C135.884 47.271 136.064 48.272 136.064 49.2723ZM147 56.2716V56.7259H141.172V56.2716L142.786 55.9081V42.1814L141.172 41.7263V41.272H145.386V55.9089L147 56.2716ZM12.7289 21.637L10.3989 21.1827V20.6368H15.6868V21.0911L14.0727 21.637V30.9093C14.0727 34.8186 12.0107 36.4549 7.70903 36.4549C3.40735 36.4549 1.52374 34.7278 1.52374 31.1835V21.5477L0 21.0926V20.6383H6.72205V21.1843L4.39127 21.5477V31.0942C4.39127 33.9116 5.37749 35.3669 8.33614 35.3669C11.5628 35.3669 12.7274 33.8207 12.7274 30.82V21.637H12.7289ZM21.781 35.6356V36.0922H16.0452V35.6356L17.6593 35.2737V26.4549L16.2251 25.9998V25.5455H20.2588V27.1825C20.7971 26.7275 22.2297 25.4554 24.1133 25.4554C25.9969 25.4554 27.1608 26.5465 27.1608 28.4546V35.2745L28.5949 35.6364V36.093H23.1271V35.6364L24.4717 35.2745V28.818C24.4717 27.7269 24.2029 26.9092 22.8591 26.9092C21.7825 26.9092 20.6179 27.6361 20.2596 27.9086V35.2729L21.781 35.6356ZM33.7925 35.2729L35.317 35.6356V36.0922H29.5796V35.6356L31.1041 35.2729V26.4541L29.6692 25.9998V25.5455H33.7925V35.2729ZM33.8828 21.9088C33.8828 22.7265 33.255 23.3641 32.3583 23.3641C31.5521 23.3641 30.8338 22.7265 30.8338 21.9088C30.8338 21.0911 31.5505 20.3634 32.3583 20.3634C33.255 20.3634 33.8828 21.0903 33.8828 21.9088ZM79.7733 35.2729L81.2979 35.6356V36.0922H75.5605V35.6356L77.085 35.2729V26.4541L75.7412 25.9998V25.5455H79.7733V35.2729ZM79.9541 21.9088C79.9541 22.7265 79.2358 23.3641 78.4296 23.3641C77.5337 23.3641 76.8155 22.7265 76.8155 21.9088C76.8155 21.0911 77.5337 20.3634 78.4296 20.3634C79.2358 20.3634 79.9541 21.0903 79.9541 21.9088ZM36.2129 26.2732L35.4066 26.0006V25.5463H40.5161V26.0006L38.902 26.364L41.2328 32.8189L43.4732 26.364L42.1294 26.0006V25.5463H45.5345V26.0006L44.7274 26.364L40.7841 36.2732H39.8882L36.2129 26.2732ZM52.8859 29.3639H48.7626C49.0314 27.546 49.6585 26.1823 50.915 26.1823C52.3484 26.1815 52.7956 27.8178 52.8859 29.3639ZM48.6707 30.1817H55.5727C55.4832 27.2726 53.9587 25.4547 50.9119 25.4547C47.8652 25.4547 45.8024 27.9995 45.8024 30.9086C45.8024 34.1818 47.8645 36.3632 51.0015 36.3632C53.6003 36.3632 54.9449 35.2737 55.7527 34.7262L55.304 34.0001C54.6776 34.362 53.5115 35.1805 51.4495 35.0897C49.4786 34.9087 48.4028 32.8182 48.6707 30.1817ZM73.5 25.9998L73.2312 28.5447H72.2458L72.0658 26.8183C71.7075 26.6358 71.1692 26.1815 70.183 26.1815C69.3767 26.1815 68.6593 26.6358 68.6593 27.5452C68.6593 28.6363 69.9142 29.0914 71.0796 29.6365C72.2458 30.1825 74.1271 30.8177 74.1271 32.7265C74.1271 34.9103 72.3346 36.3632 70.2726 36.3632C68.3897 36.3632 67.2259 35.9089 66.866 35.8181L66.6876 32.9082L67.673 32.8174L68.3009 34.7262C68.5697 34.9988 69.2871 35.5439 70.2734 35.5439C71.6179 35.5439 72.2458 34.8155 72.2458 33.8168C72.2458 32.6341 70.5429 32.0897 69.4671 31.5446C68.3913 31.0903 66.8675 30.6352 66.8675 28.4538C66.8675 26.6358 68.3017 25.4547 70.2741 25.4547C71.977 25.4547 72.9617 25.8173 73.5 25.9998ZM99.0467 22.0004L98.059 20.5459L94.4747 23.3641L95.1011 24.2727L99.0467 22.0004ZM97.1646 29.3639H92.9518C93.2198 27.546 93.9372 26.1823 95.1922 26.1823C96.536 26.1815 97.0727 27.8178 97.1646 29.3639ZM92.8606 30.1817H99.7619C99.6723 27.2726 98.1501 25.4547 95.1914 25.4547C92.2328 25.4547 89.9916 27.9995 89.9916 30.9086C89.9916 34.1818 92.1447 36.3632 95.1914 36.3632C97.7902 36.3632 99.1348 35.2737 99.941 34.7262L99.4931 34.0001C98.8668 34.362 97.7006 35.1805 95.6386 35.0897C93.6677 34.9087 92.6815 32.8174 92.8599 30.1809L92.8606 30.1817ZM64.3576 25.4547C62.8331 25.4547 61.758 26.6358 61.1302 27.9995V25.5447H56.8277V25.999L58.4418 26.4541V35.2729L56.8277 35.6348V36.0914H63.3714V35.5447L61.1302 35.1813V29.1814C61.758 27.8178 62.6547 27.2726 63.1922 27.2726C63.6401 27.2726 63.8201 27.3635 64.1784 27.6361C64.268 27.7269 64.7159 27.9086 64.9847 27.7269C65.523 27.546 65.6126 27.1818 65.6126 26.5457C65.6133 25.9998 65.0743 25.4547 64.3576 25.4547ZM93.3997 56.2716V56.7259H87.6623V56.2716L89.2764 55.9081V47.0909L87.843 46.6366V46.1823H91.876V47.8193C92.4135 47.3627 93.8461 45.999 95.7305 45.999C97.6149 45.999 98.7772 47.1817 98.7772 49.0913V55.9081L100.212 56.2716V56.7259H94.7442V56.2716L96.0888 55.9081V49.454C96.0888 48.3645 95.8201 47.4559 94.4747 47.4559C93.4005 47.4559 92.2343 48.2736 91.876 48.5454V55.9089L93.3997 56.2716ZM116.794 46.0906C115.27 46.0906 114.195 47.271 113.567 48.6339V46.1807H109.264V46.635L110.878 47.0893V55.9066L109.264 56.27V56.7243H115.806V56.1792L113.566 55.8157V49.8159C114.194 48.4522 115.09 47.9071 115.628 47.9071C116.076 47.9071 116.257 47.9979 116.613 48.2705C116.704 48.3614 117.152 48.4514 117.42 48.3614C117.957 48.1804 118.048 47.7238 118.048 47.1786C118.048 46.6335 117.511 46.0906 116.794 46.0906ZM89.1868 34.9095C88.7389 35.1813 88.3806 35.3638 87.7519 35.3638C86.856 35.3638 86.4969 34.7262 86.4969 33.0915V26.4541L89.1876 26.0907V25.5447H86.4969V20.636H85.6907C85.5122 23.4542 84.5268 25.2729 82.0168 25.5447H81.6585V26.0907L83.8989 26.4541V33.2732C83.8989 35.4546 84.3469 36.3632 86.4081 36.3632C87.843 36.3632 88.9173 35.8181 89.4548 35.3638L89.1868 34.9095ZM108.099 55.5455C107.651 55.8173 107.292 55.9998 106.665 55.9998C105.77 55.9998 105.41 55.2713 105.41 53.7275V47.0901L108.099 46.6358V46.1815H105.41V41.2712H104.604C104.426 44.0902 103.438 45.9081 100.929 46.1815H100.57V46.6358L102.813 47.0901V53.9092C102.813 56.0006 103.261 56.9992 105.322 56.9992C106.756 56.9992 107.832 56.4525 108.369 55.9998L108.099 55.5455ZM46.6103 49.9999H42.3974C42.6662 48.182 43.3836 46.8175 44.6378 46.8175C45.9824 46.8175 46.5199 48.4545 46.6103 49.9999ZM42.3086 50.8184H49.2106C49.121 47.9086 47.5965 45.999 44.6386 45.999C41.6807 45.999 39.4395 48.6347 39.4395 51.5469C39.4395 54.8186 41.5919 57 44.6386 57C47.2381 57 48.5835 55.9081 49.3897 55.363L48.9418 54.6369C48.3139 54.9988 47.1493 55.8173 45.0873 55.7264C43.1149 55.5455 42.1302 53.4542 42.3086 50.8184ZM125.488 49.9999H121.364C121.545 48.182 122.262 46.8175 123.518 46.8175C124.951 46.8175 125.398 48.4545 125.488 49.9999ZM127.459 42.6372L126.474 41.1819L122.888 44.0009L123.426 44.8186L127.459 42.6372ZM128.087 50.8184C127.997 47.9086 126.564 45.999 123.516 45.999C120.468 45.999 118.316 48.6347 118.316 51.5469C118.316 54.8186 120.469 57 123.516 57C126.115 57 127.549 55.9081 128.355 55.363L127.907 54.6369C127.281 54.9988 126.025 55.8173 124.053 55.7264C121.991 55.5455 121.006 53.4542 121.185 50.8184H128.087Z" fill="#FAFDFE"/>
</svg>
